<mxfile host="app.diagrams.net" modified="2024-03-20T09:09:15.438Z" agent="Mozilla/5.0 (Windows NT 10.0; Win64; x64) AppleWebKit/537.36 (KHTML, like Gecko) Chrome/122.0.0.0 Safari/537.36" etag="CCCT_QCAg3ZuhqESFdK2" version="24.0.7" type="github">
  <diagram name="Page-1" id="HDje1TVAHaauwQQoRfXc">
    <mxGraphModel dx="1909" dy="949" grid="1" gridSize="10" guides="1" tooltips="1" connect="1" arrows="1" fold="1" page="1" pageScale="1" pageWidth="2000" pageHeight="1000" math="0" shadow="0">
      <root>
        <mxCell id="0" />
        <mxCell id="1" parent="0" />
        <mxCell id="YBdqtDgmNeirAY2qqILA-48" value="" style="rounded=0;whiteSpace=wrap;html=1;rotation=90;" vertex="1" parent="1">
          <mxGeometry x="59.07" y="309.69" width="508.12" height="183.75" as="geometry" />
        </mxCell>
        <mxCell id="YBdqtDgmNeirAY2qqILA-25" style="edgeStyle=orthogonalEdgeStyle;rounded=0;orthogonalLoop=1;jettySize=auto;html=1;exitX=0.5;exitY=0.5;exitDx=0;exitDy=0;exitPerimeter=0;entryX=0;entryY=0.5;entryDx=0;entryDy=0;" edge="1" parent="1" source="YBdqtDgmNeirAY2qqILA-1" target="YBdqtDgmNeirAY2qqILA-7">
          <mxGeometry relative="1" as="geometry" />
        </mxCell>
        <mxCell id="YBdqtDgmNeirAY2qqILA-26" style="edgeStyle=orthogonalEdgeStyle;rounded=0;orthogonalLoop=1;jettySize=auto;html=1;exitX=0.5;exitY=0.5;exitDx=0;exitDy=0;exitPerimeter=0;entryX=0;entryY=0.5;entryDx=0;entryDy=0;" edge="1" parent="1" source="YBdqtDgmNeirAY2qqILA-1" target="YBdqtDgmNeirAY2qqILA-8">
          <mxGeometry relative="1" as="geometry" />
        </mxCell>
        <mxCell id="YBdqtDgmNeirAY2qqILA-27" style="edgeStyle=orthogonalEdgeStyle;rounded=0;orthogonalLoop=1;jettySize=auto;html=1;exitX=0.5;exitY=0.5;exitDx=0;exitDy=0;exitPerimeter=0;entryX=0;entryY=0.5;entryDx=0;entryDy=0;" edge="1" parent="1" source="YBdqtDgmNeirAY2qqILA-1" target="YBdqtDgmNeirAY2qqILA-9">
          <mxGeometry relative="1" as="geometry" />
        </mxCell>
        <mxCell id="YBdqtDgmNeirAY2qqILA-31" style="edgeStyle=orthogonalEdgeStyle;rounded=0;orthogonalLoop=1;jettySize=auto;html=1;exitX=0;exitY=0.3333333333333333;exitDx=0;exitDy=0;exitPerimeter=0;entryX=0;entryY=0.5;entryDx=0;entryDy=0;" edge="1" parent="1" source="YBdqtDgmNeirAY2qqILA-1" target="YBdqtDgmNeirAY2qqILA-10">
          <mxGeometry relative="1" as="geometry" />
        </mxCell>
        <mxCell id="YBdqtDgmNeirAY2qqILA-33" style="edgeStyle=orthogonalEdgeStyle;rounded=0;orthogonalLoop=1;jettySize=auto;html=1;exitX=0;exitY=0.3333333333333333;exitDx=0;exitDy=0;exitPerimeter=0;entryX=0;entryY=0.5;entryDx=0;entryDy=0;" edge="1" parent="1" source="YBdqtDgmNeirAY2qqILA-1" target="YBdqtDgmNeirAY2qqILA-11">
          <mxGeometry relative="1" as="geometry" />
        </mxCell>
        <mxCell id="YBdqtDgmNeirAY2qqILA-1" value="Staff" style="shape=umlActor;verticalLabelPosition=bottom;verticalAlign=top;html=1;outlineConnect=0;" vertex="1" parent="1">
          <mxGeometry x="60" y="260" width="30" height="60" as="geometry" />
        </mxCell>
        <mxCell id="YBdqtDgmNeirAY2qqILA-17" style="edgeStyle=orthogonalEdgeStyle;rounded=0;orthogonalLoop=1;jettySize=auto;html=1;exitX=0.5;exitY=0.5;exitDx=0;exitDy=0;exitPerimeter=0;entryX=0;entryY=0.5;entryDx=0;entryDy=0;" edge="1" parent="1" source="YBdqtDgmNeirAY2qqILA-4" target="YBdqtDgmNeirAY2qqILA-11">
          <mxGeometry relative="1" as="geometry" />
        </mxCell>
        <mxCell id="YBdqtDgmNeirAY2qqILA-18" style="edgeStyle=orthogonalEdgeStyle;rounded=0;orthogonalLoop=1;jettySize=auto;html=1;exitX=0.5;exitY=0.5;exitDx=0;exitDy=0;exitPerimeter=0;entryX=0;entryY=0.5;entryDx=0;entryDy=0;" edge="1" parent="1" source="YBdqtDgmNeirAY2qqILA-4" target="YBdqtDgmNeirAY2qqILA-10">
          <mxGeometry relative="1" as="geometry" />
        </mxCell>
        <mxCell id="YBdqtDgmNeirAY2qqILA-29" style="edgeStyle=orthogonalEdgeStyle;rounded=0;orthogonalLoop=1;jettySize=auto;html=1;exitX=0.5;exitY=0;exitDx=0;exitDy=0;exitPerimeter=0;entryX=0;entryY=0.5;entryDx=0;entryDy=0;" edge="1" parent="1" source="YBdqtDgmNeirAY2qqILA-4" target="YBdqtDgmNeirAY2qqILA-9">
          <mxGeometry relative="1" as="geometry" />
        </mxCell>
        <mxCell id="YBdqtDgmNeirAY2qqILA-4" value="Customer" style="shape=umlActor;verticalLabelPosition=bottom;verticalAlign=top;html=1;outlineConnect=0;" vertex="1" parent="1">
          <mxGeometry x="40" y="610" width="30" height="60" as="geometry" />
        </mxCell>
        <mxCell id="YBdqtDgmNeirAY2qqILA-7" value="MANAGE BILLING" style="ellipse;whiteSpace=wrap;html=1;" vertex="1" parent="1">
          <mxGeometry x="250" y="160" width="120" height="80" as="geometry" />
        </mxCell>
        <mxCell id="YBdqtDgmNeirAY2qqILA-8" value="MANAGE INVENTORY" style="ellipse;whiteSpace=wrap;html=1;" vertex="1" parent="1">
          <mxGeometry x="250" y="260" width="120" height="80" as="geometry" />
        </mxCell>
        <mxCell id="YBdqtDgmNeirAY2qqILA-34" style="edgeStyle=orthogonalEdgeStyle;rounded=0;orthogonalLoop=1;jettySize=auto;html=1;exitX=1;exitY=0.5;exitDx=0;exitDy=0;" edge="1" parent="1" source="YBdqtDgmNeirAY2qqILA-9">
          <mxGeometry relative="1" as="geometry">
            <mxPoint x="550" y="400.0769230769231" as="targetPoint" />
          </mxGeometry>
        </mxCell>
        <mxCell id="YBdqtDgmNeirAY2qqILA-9" value="MANAGE REPORT" style="ellipse;whiteSpace=wrap;html=1;" vertex="1" parent="1">
          <mxGeometry x="250" y="360" width="120" height="80" as="geometry" />
        </mxCell>
        <mxCell id="YBdqtDgmNeirAY2qqILA-37" value="" style="edgeStyle=orthogonalEdgeStyle;rounded=0;orthogonalLoop=1;jettySize=auto;html=1;" edge="1" parent="1" source="YBdqtDgmNeirAY2qqILA-10" target="YBdqtDgmNeirAY2qqILA-36">
          <mxGeometry relative="1" as="geometry" />
        </mxCell>
        <mxCell id="YBdqtDgmNeirAY2qqILA-10" value="MANAGE RESERVATION" style="ellipse;whiteSpace=wrap;html=1;" vertex="1" parent="1">
          <mxGeometry x="250" y="460" width="120" height="80" as="geometry" />
        </mxCell>
        <mxCell id="YBdqtDgmNeirAY2qqILA-39" style="edgeStyle=orthogonalEdgeStyle;rounded=0;orthogonalLoop=1;jettySize=auto;html=1;exitX=1;exitY=0.5;exitDx=0;exitDy=0;" edge="1" parent="1" source="YBdqtDgmNeirAY2qqILA-11" target="YBdqtDgmNeirAY2qqILA-12">
          <mxGeometry relative="1" as="geometry" />
        </mxCell>
        <mxCell id="YBdqtDgmNeirAY2qqILA-11" value="MANAGE ROOM" style="ellipse;whiteSpace=wrap;html=1;" vertex="1" parent="1">
          <mxGeometry x="250" y="560" width="120" height="80" as="geometry" />
        </mxCell>
        <mxCell id="YBdqtDgmNeirAY2qqILA-40" style="edgeStyle=orthogonalEdgeStyle;rounded=0;orthogonalLoop=1;jettySize=auto;html=1;exitX=1;exitY=1;exitDx=0;exitDy=0;entryX=0;entryY=0.5;entryDx=0;entryDy=0;" edge="1" parent="1" source="YBdqtDgmNeirAY2qqILA-11" target="YBdqtDgmNeirAY2qqILA-13">
          <mxGeometry relative="1" as="geometry" />
        </mxCell>
        <mxCell id="YBdqtDgmNeirAY2qqILA-12" value="CHECK IN" style="ellipse;whiteSpace=wrap;html=1;" vertex="1" parent="1">
          <mxGeometry x="550" y="570" width="120" height="80" as="geometry" />
        </mxCell>
        <mxCell id="YBdqtDgmNeirAY2qqILA-13" value="CHECK OUT" style="ellipse;whiteSpace=wrap;html=1;" vertex="1" parent="1">
          <mxGeometry x="550" y="660" width="120" height="80" as="geometry" />
        </mxCell>
        <mxCell id="YBdqtDgmNeirAY2qqILA-35" value="VIEW REPORT" style="ellipse;whiteSpace=wrap;html=1;" vertex="1" parent="1">
          <mxGeometry x="550" y="360" width="120" height="80" as="geometry" />
        </mxCell>
        <mxCell id="YBdqtDgmNeirAY2qqILA-36" value="CANCEL RESERVATION" style="ellipse;whiteSpace=wrap;html=1;" vertex="1" parent="1">
          <mxGeometry x="550" y="460" width="120" height="80" as="geometry" />
        </mxCell>
        <mxCell id="YBdqtDgmNeirAY2qqILA-44" value="&amp;lt;include&amp;gt;" style="text;html=1;align=center;verticalAlign=middle;whiteSpace=wrap;rounded=0;" vertex="1" parent="1">
          <mxGeometry x="430" y="370" width="60" height="30" as="geometry" />
        </mxCell>
        <mxCell id="YBdqtDgmNeirAY2qqILA-45" value="&amp;lt;include&amp;gt;" style="text;html=1;align=center;verticalAlign=middle;whiteSpace=wrap;rounded=0;" vertex="1" parent="1">
          <mxGeometry x="430" y="470" width="60" height="30" as="geometry" />
        </mxCell>
        <mxCell id="YBdqtDgmNeirAY2qqILA-46" value="&amp;lt;include&amp;gt;" style="text;html=1;align=center;verticalAlign=middle;whiteSpace=wrap;rounded=0;" vertex="1" parent="1">
          <mxGeometry x="470" y="580" width="60" height="30" as="geometry" />
        </mxCell>
        <mxCell id="YBdqtDgmNeirAY2qqILA-47" value="&amp;lt;include&amp;gt;" style="text;html=1;align=center;verticalAlign=middle;whiteSpace=wrap;rounded=0;" vertex="1" parent="1">
          <mxGeometry x="480" y="670" width="60" height="30" as="geometry" />
        </mxCell>
      </root>
    </mxGraphModel>
  </diagram>
</mxfile>
